<?xml version="1.0" encoding="UTF-8"?>
<svg xmlns="http://www.w3.org/2000/svg" xmlns:xlink="http://www.w3.org/1999/xlink" width="4001" height="4001" viewBox="0 0 4001 4001">
<path fill-rule="evenodd" fill="rgb(3.140259%, 15.696716%, 20.384216%)" fill-opacity="1" d="M 1 0 L 4001 0 L 4001 4000 L 1 4000 L 1 0 "/>
<path fill-rule="nonzero" fill="rgb(0%, 80.076599%, 100%)" fill-opacity="1" d="M 2296.398438 2459.058594 L 2001 2754.460938 L 1705.589844 2459.058594 L 1756.210938 2408.449219 L 2001 2653.230469 L 2245.789062 2408.441406 L 2296.398438 2459.058594 "/>
<path fill-rule="nonzero" fill="rgb(90.234375%, 90.234375%, 90.234375%)" fill-opacity="1" d="M 1541.960938 1811.800781 L 1350.761719 2003 L 1705.589844 2357.828125 L 1654.980469 2408.449219 L 1249.53125 2003 L 1491.351562 1761.191406 L 1541.960938 1811.800781 "/>
<path fill-rule="nonzero" fill="rgb(90.234375%, 90.234375%, 90.234375%)" fill-opacity="1" d="M 2510.648438 1761.191406 L 2752.460938 2003 L 2347.011719 2408.449219 L 2296.398438 2357.828125 L 2651.230469 2003 L 2460.03125 1811.800781 L 2510.648438 1761.191406 "/>
<path fill-rule="nonzero" fill="rgb(0%, 80.076599%, 100%)" fill-opacity="1" d="M 2026.308594 1315.589844 L 2460.039062 1709.25 L 2409.421875 1755.179688 L 2326.121094 1679.578125 L 2001 1384.5 L 1592.578125 1755.191406 L 1541.960938 1709.25 L 2001 1292.621094 L 2026.308594 1315.589844 "/>
<path fill-rule="nonzero" fill="rgb(0%, 80.076599%, 100%)" fill-opacity="1" d="M 2542.910156 2003 L 2286.339844 2262.46875 L 2441.679688 2003 L 2301.488281 1770.691406 Z M 2087.671875 2358.648438 L 2086.851562 2357.828125 L 2087.671875 2357.011719 Z M 2087.671875 2358.648438 "/>
<path fill-rule="nonzero" fill="rgb(0%, 80.076599%, 100%)" fill-opacity="1" d="M 1459.089844 2003 L 1715.660156 2262.46875 L 1560.320312 2003 L 1700.511719 1770.691406 Z M 1914.328125 2358.648438 L 1915.148438 2357.828125 L 1914.328125 2357.011719 Z M 1914.328125 2358.648438 "/>
<path fill-rule="nonzero" fill="rgb(90.234375%, 90.234375%, 90.234375%)" fill-opacity="1" d="M 2242.320312 1765.960938 C 2242.320312 1851.269531 2242.320312 1936.578125 2242.320312 2021.789062 C 2242.320312 2107.011719 2242.320312 2192.320312 2242.320312 2277.449219 C 2208.761719 2307.78125 2175.179688 2338.019531 2141.640625 2368.261719 C 2108.101562 2398.5 2074.539062 2428.730469 2041 2458.96875 C 2041 2315.851562 2041 2172.648438 2041 2029.53125 C 2041 1886.410156 2041 1743.109375 2041 1599.910156 C 2051.949219 1609.011719 2062.898438 1618.039062 2073.851562 1627.050781 C 2084.800781 1636.070312 2095.78125 1645.089844 2106.75 1654.199219 C 2106.75 1764.070312 2106.75 1873.859375 2106.75 1983.570312 C 2106.75 2093.359375 2106.75 2203.058594 2106.75 2312.851562 C 2118.371094 2304.691406 2130 2296.488281 2141.640625 2288.359375 C 2153.238281 2280.261719 2164.910156 2272.128906 2176.550781 2263.96875 C 2176.550781 2171.960938 2176.550781 2079.949219 2176.550781 1987.949219 C 2176.550781 1895.941406 2176.550781 1803.851562 2176.550781 1711.761719 C 2187.5 1720.78125 2198.449219 1729.828125 2209.429688 1738.898438 C 2220.359375 1747.949219 2231.351562 1756.941406 2242.320312 1765.960938 "/>
<path fill-rule="nonzero" fill="rgb(90.234375%, 90.234375%, 90.234375%)" fill-opacity="1" d="M 1759.679688 1765.960938 C 1793.21875 1738.21875 1826.78125 1710.550781 1860.320312 1682.890625 C 1893.859375 1655.230469 1927.441406 1627.570312 1961 1599.910156 C 1961 1660.898438 1961 1721.808594 1961 1782.71875 C 1961 1843.621094 1961 1904.53125 1961 1965.441406 C 1946.671875 1979.011719 1932.328125 1991.808594 1918 2003.839844 C 1932.328125 2015.609375 1946.671875 2027.980469 1961 2041.039062 C 1961 2110.710938 1961 2180.460938 1961 2250.050781 C 1961 2319.628906 1961 2389.390625 1961 2458.96875 C 1950.03125 2449.089844 1939.058594 2439.128906 1928.109375 2429.25 C 1917.160156 2419.371094 1906.179688 2409.488281 1895.230469 2399.609375 C 1895.230469 2347.640625 1895.230469 2295.488281 1895.230469 2243.429688 C 1895.230469 2191.460938 1895.230469 2139.230469 1895.230469 2087.171875 C 1883.589844 2076.429688 1872.039062 2066.078125 1860.320312 2056.5 C 1848.808594 2047.089844 1837.050781 2038.378906 1825.429688 2029.871094 C 1825.429688 2081.070312 1825.429688 2132.269531 1825.429688 2183.390625 C 1825.429688 2234.5 1825.429688 2285.609375 1825.429688 2336.730469 C 1814.460938 2326.761719 1803.480469 2316.878906 1792.53125 2307.011719 C 1781.578125 2297.128906 1770.628906 2287.25 1759.679688 2277.449219 C 1759.679688 2192.320312 1759.679688 2107.011719 1759.679688 2021.789062 C 1759.679688 1936.578125 1759.679688 1851.269531 1759.679688 1765.960938 Z M 1895.230469 1740.449219 C 1883.589844 1747.75 1871.898438 1755 1860.320312 1762.269531 C 1848.660156 1769.601562 1837.050781 1776.960938 1825.429688 1784.089844 C 1825.429688 1811.070312 1825.429688 1837.949219 1825.429688 1864.929688 C 1825.429688 1891.820312 1825.429688 1918.789062 1825.429688 1945.769531 C 1834.351562 1950.148438 1843.289062 1954.789062 1852.230469 1959.679688 C 1866.558594 1947.570312 1880.890625 1934.769531 1895.230469 1921.199219 C 1895.230469 1860.980469 1895.230469 1800.761719 1895.230469 1740.449219 "/>
</svg>
